<mxfile host="app.diagrams.net" agent="Mozilla/5.0 (Windows NT 10.0; Win64; x64) AppleWebKit/537.36 (KHTML, like Gecko) Chrome/135.0.0.0 Safari/537.36 OPR/120.0.0.0" version="28.0.9">
  <diagram name="Page-1" id="LHj69xT4ZYhkIDUVW9KY">
    <mxGraphModel dx="1385" dy="755" grid="1" gridSize="10" guides="1" tooltips="1" connect="1" arrows="1" fold="1" page="1" pageScale="1" pageWidth="850" pageHeight="1100" math="0" shadow="0">
      <root>
        <mxCell id="0" />
        <mxCell id="1" parent="0" />
        <mxCell id="FObDXRYMl7Dgd6jqZhd2-1" value="" style="rounded=0;whiteSpace=wrap;html=1;" vertex="1" parent="1">
          <mxGeometry width="850" height="100" as="geometry" />
        </mxCell>
        <mxCell id="FObDXRYMl7Dgd6jqZhd2-2" value="" style="verticalLabelPosition=bottom;shadow=0;dashed=0;align=center;html=1;verticalAlign=top;strokeWidth=1;shape=mxgraph.mockup.graphics.simpleIcon;strokeColor=#999999;" vertex="1" parent="1">
          <mxGeometry width="100" height="100" as="geometry" />
        </mxCell>
        <mxCell id="FObDXRYMl7Dgd6jqZhd2-3" value="" style="rounded=0;whiteSpace=wrap;html=1;" vertex="1" parent="1">
          <mxGeometry x="800" y="20" width="40" height="10" as="geometry" />
        </mxCell>
        <mxCell id="FObDXRYMl7Dgd6jqZhd2-5" value="" style="rounded=0;whiteSpace=wrap;html=1;" vertex="1" parent="1">
          <mxGeometry x="800" y="40" width="40" height="10" as="geometry" />
        </mxCell>
        <mxCell id="FObDXRYMl7Dgd6jqZhd2-6" value="" style="rounded=0;whiteSpace=wrap;html=1;" vertex="1" parent="1">
          <mxGeometry x="800" y="60" width="40" height="10" as="geometry" />
        </mxCell>
        <mxCell id="FObDXRYMl7Dgd6jqZhd2-7" value="" style="verticalLabelPosition=bottom;shadow=0;dashed=0;align=center;html=1;verticalAlign=top;strokeWidth=1;shape=mxgraph.mockup.graphics.simpleIcon;strokeColor=#999999;" vertex="1" parent="1">
          <mxGeometry y="100" width="850" height="270" as="geometry" />
        </mxCell>
        <mxCell id="FObDXRYMl7Dgd6jqZhd2-8" value="&lt;font style=&quot;font-size: 18px;&quot;&gt;Site Name&lt;/font&gt;" style="text;html=1;align=center;verticalAlign=middle;resizable=0;points=[];autosize=1;strokeColor=none;fillColor=none;strokeWidth=1;" vertex="1" parent="1">
          <mxGeometry x="370" y="215" width="110" height="40" as="geometry" />
        </mxCell>
        <mxCell id="FObDXRYMl7Dgd6jqZhd2-10" value="Summary of Star Wars" style="rounded=0;whiteSpace=wrap;html=1;" vertex="1" parent="1">
          <mxGeometry x="80" y="410" width="680" height="210" as="geometry" />
        </mxCell>
        <mxCell id="FObDXRYMl7Dgd6jqZhd2-11" value="&lt;font style=&quot;font-size: 18px;&quot;&gt;Footer Content&lt;/font&gt;" style="rounded=0;whiteSpace=wrap;html=1;" vertex="1" parent="1">
          <mxGeometry y="1020" width="850" height="80" as="geometry" />
        </mxCell>
        <mxCell id="FObDXRYMl7Dgd6jqZhd2-12" value="Weapons and Vehicles" style="text;html=1;align=center;verticalAlign=middle;resizable=0;points=[];autosize=1;strokeColor=none;fillColor=none;" vertex="1" parent="1">
          <mxGeometry x="345" y="630" width="150" height="30" as="geometry" />
        </mxCell>
        <mxCell id="FObDXRYMl7Dgd6jqZhd2-13" value="Weapon/vehicle name" style="rounded=0;whiteSpace=wrap;html=1;" vertex="1" parent="1">
          <mxGeometry x="345" y="660" width="150" height="170" as="geometry" />
        </mxCell>
        <mxCell id="FObDXRYMl7Dgd6jqZhd2-14" value="Weapon/vehicle name" style="rounded=0;whiteSpace=wrap;html=1;" vertex="1" parent="1">
          <mxGeometry x="560" y="660" width="150" height="170" as="geometry" />
        </mxCell>
        <mxCell id="FObDXRYMl7Dgd6jqZhd2-15" value="Weapon/vehicle name" style="rounded=0;whiteSpace=wrap;html=1;" vertex="1" parent="1">
          <mxGeometry x="120" y="660" width="150" height="170" as="geometry" />
        </mxCell>
        <mxCell id="FObDXRYMl7Dgd6jqZhd2-16" value="Weapon/vehicle name" style="rounded=0;whiteSpace=wrap;html=1;" vertex="1" parent="1">
          <mxGeometry x="120" y="840" width="150" height="170" as="geometry" />
        </mxCell>
        <mxCell id="FObDXRYMl7Dgd6jqZhd2-17" value="Weapon/vehicle name" style="rounded=0;whiteSpace=wrap;html=1;" vertex="1" parent="1">
          <mxGeometry x="345" y="840" width="150" height="170" as="geometry" />
        </mxCell>
        <mxCell id="FObDXRYMl7Dgd6jqZhd2-18" value="Weapon/vehicle name" style="rounded=0;whiteSpace=wrap;html=1;" vertex="1" parent="1">
          <mxGeometry x="560" y="840" width="150" height="170" as="geometry" />
        </mxCell>
        <mxCell id="FObDXRYMl7Dgd6jqZhd2-19" value="Modal Button" style="rounded=1;whiteSpace=wrap;html=1;" vertex="1" parent="1">
          <mxGeometry x="162.5" y="780" width="65" height="30" as="geometry" />
        </mxCell>
        <mxCell id="FObDXRYMl7Dgd6jqZhd2-20" value="Modal Button" style="rounded=1;whiteSpace=wrap;html=1;" vertex="1" parent="1">
          <mxGeometry x="387.5" y="780" width="65" height="30" as="geometry" />
        </mxCell>
        <mxCell id="FObDXRYMl7Dgd6jqZhd2-21" value="Modal Button" style="rounded=1;whiteSpace=wrap;html=1;" vertex="1" parent="1">
          <mxGeometry x="602.5" y="780" width="65" height="30" as="geometry" />
        </mxCell>
        <mxCell id="FObDXRYMl7Dgd6jqZhd2-22" value="Modal Button" style="rounded=1;whiteSpace=wrap;html=1;" vertex="1" parent="1">
          <mxGeometry x="602.5" y="960" width="65" height="30" as="geometry" />
        </mxCell>
        <mxCell id="FObDXRYMl7Dgd6jqZhd2-23" value="Modal Button" style="rounded=1;whiteSpace=wrap;html=1;" vertex="1" parent="1">
          <mxGeometry x="387.5" y="960" width="65" height="30" as="geometry" />
        </mxCell>
        <mxCell id="FObDXRYMl7Dgd6jqZhd2-24" value="Modal Button" style="rounded=1;whiteSpace=wrap;html=1;" vertex="1" parent="1">
          <mxGeometry x="162.5" y="960" width="65" height="30" as="geometry" />
        </mxCell>
        <mxCell id="FObDXRYMl7Dgd6jqZhd2-26" value="&lt;font style=&quot;font-size: 18px;&quot;&gt;Home&lt;/font&gt;" style="text;html=1;align=center;verticalAlign=middle;resizable=0;points=[];autosize=1;strokeColor=none;fillColor=none;" vertex="1" parent="1">
          <mxGeometry x="385" y="365" width="70" height="40" as="geometry" />
        </mxCell>
      </root>
    </mxGraphModel>
  </diagram>
</mxfile>
